<svg width="15" height="16" viewBox="0 0 15 16" fill="none" xmlns="http://www.w3.org/2000/svg">
<g clip-path="url(#clip0_1_366)">
<path d="M7.34998 1.97498C10.7328 1.97498 13.475 4.71714 13.475 8.09998C13.475 11.4828 10.7328 14.225 7.34998 14.225C3.96714 14.225 1.22498 11.4828 1.22498 8.09998C1.22498 4.71714 3.96714 1.97498 7.34998 1.97498ZM7.34998 3.81248C4.98205 3.81248 3.06248 5.73205 3.06248 8.09998C3.06248 9.23433 3.50348 10.2664 4.22255 11.0332L4.3181 11.1312L5.18418 10.2658C4.63048 9.71085 4.28748 8.94523 4.28748 8.09998C4.28748 6.40886 5.65886 5.03748 7.34998 5.03748C7.62438 5.03748 7.8902 5.07361 8.14316 5.1416L9.1005 4.18488C8.56579 3.946 7.9735 3.81248 7.34998 3.81248ZM11.2651 6.35006L10.309 7.30679C10.3763 7.55975 10.4125 7.82558 10.4125 8.09998C10.4125 8.94523 10.0695 9.71085 9.51578 10.2658L10.3819 11.1319C11.1573 10.3558 11.6375 9.28394 11.6375 8.09998C11.6375 7.47645 11.5046 6.88416 11.2651 6.35006ZM9.9482 4.63506L7.66664 6.91601C7.56558 6.88906 7.45961 6.87498 7.34998 6.87498C6.67316 6.87498 6.12498 7.42316 6.12498 8.09998C6.12498 8.77679 6.67316 9.32498 7.34998 9.32498C8.02679 9.32498 8.57498 8.77679 8.57498 8.09998C8.57498 7.99034 8.56089 7.88438 8.53394 7.78331L10.8149 5.50114L9.94881 4.63506H9.9482Z" fill="#7942FB"/>
</g>
<defs>
<clipPath id="clip0_1_366">
<rect width="14.7" height="14.7" fill="white" transform="translate(0 0.75)"/>
</clipPath>
</defs>
</svg>
