<svg width="16" height="16" viewBox="0 0 16 16" fill="none" xmlns="http://www.w3.org/2000/svg">
<g clip-path="url(#clip0_1_26)">
<path d="M8.07501 13.8501C4.69217 13.8501 1.95001 11.1079 1.95001 7.7251C1.95001 4.98232 3.7526 2.66095 6.23751 1.88062V3.18157C5.18458 3.60913 4.31291 4.38924 3.77162 5.38848C3.23033 6.38772 3.05305 7.54399 3.27011 8.65949C3.48716 9.775 4.08506 10.7804 4.96153 11.5038C5.838 12.2272 6.93858 12.6235 8.07501 12.6251C9.0512 12.6251 10.0052 12.3336 10.8146 11.788C11.6241 11.2423 12.2522 10.4675 12.6185 9.5626H13.9195C13.1392 12.0475 10.8178 13.8501 8.07501 13.8501ZM14.1694 8.3376H7.46251V1.63072C7.66402 1.61051 7.8686 1.6001 8.07501 1.6001C11.4578 1.6001 14.2 4.34226 14.2 7.7251C14.2 7.93151 14.1896 8.13609 14.1694 8.3376ZM8.68751 2.86307V7.1126H12.937C12.8007 6.03313 12.3091 5.02969 11.5398 4.26033C10.7704 3.49097 9.76698 2.99941 8.68751 2.86307Z" fill="#959595"/>
</g>
<defs>
<clipPath id="clip0_1_26">
<rect width="14.7" height="14.7" fill="white" transform="translate(0.724976 0.375)"/>
</clipPath>
</defs>
</svg>
